<svg xmlns="http://www.w3.org/2000/svg" xmlns:xlink="http://www.w3.org/1999/xlink" width="100" zoomAndPan="magnify" viewBox="0 0 75 74.999997" height="100" preserveAspectRatio="xMidYMid meet" version="1.0"><defs><clipPath id="aa0df016da"><path d="M 20.421875 31.609375 L 34.671875 31.609375 L 34.671875 45.859375 L 20.421875 45.859375 Z M 20.421875 31.609375 " clip-rule="nonzero"/></clipPath><clipPath id="b6529d42d9"><path d="M 49.1875 31.609375 L 64.1875 31.609375 L 64.1875 46.609375 L 49.1875 46.609375 Z M 49.1875 31.609375 " clip-rule="nonzero"/></clipPath><clipPath id="87905973e7"><path d="M 37.5 51.3125 L 47.25 51.3125 L 47.25 58.8125 L 37.5 58.8125 Z M 37.5 51.3125 " clip-rule="nonzero"/></clipPath><clipPath id="d36550c06e"><path d="M 0 0 L 14.882812 0 L 14.882812 13.910156 L 0 13.910156 Z M 0 0 " clip-rule="nonzero"/></clipPath><clipPath id="190b7bc4d2"><path d="M 13.617188 0 L 22.617188 0 L 22.617188 7.910156 L 13.617188 7.910156 Z M 13.617188 0 " clip-rule="nonzero"/></clipPath><clipPath id="381ec0f11e"><path d="M 20.421875 0 L 33.171875 0 L 33.171875 10.609375 L 20.421875 10.609375 Z M 20.421875 0 " clip-rule="nonzero"/></clipPath><clipPath id="9f4efffd1e"><path d="M 30.15625 0 L 48.90625 0 L 48.90625 13.910156 L 30.15625 13.910156 Z M 30.15625 0 " clip-rule="nonzero"/></clipPath><clipPath id="0633559bdc"><path d="M 0 10.59375 L 8.703125 10.59375 L 8.703125 21.84375 L 0 21.84375 Z M 0 10.59375 " clip-rule="nonzero"/></clipPath><clipPath id="e8f0ebbe08"><path d="M 47.039062 0 L 65.039062 0 L 65.039062 16.160156 L 47.039062 16.160156 Z M 47.039062 0 " clip-rule="nonzero"/></clipPath><clipPath id="8ffe47a667"><path d="M 62.03125 0 L 74.78125 0 L 74.78125 10.910156 L 62.03125 10.910156 Z M 62.03125 0 " clip-rule="nonzero"/></clipPath><clipPath id="52ca6f59e0"><path d="M 0 19.171875 L 4.953125 19.171875 L 4.953125 26.671875 L 0 26.671875 Z M 0 19.171875 " clip-rule="nonzero"/></clipPath><clipPath id="1aa91f7148"><path d="M 0 61.546875 L 14.742188 61.546875 L 14.742188 75 L 0 75 Z M 0 61.546875 " clip-rule="nonzero"/></clipPath><clipPath id="390b3c790a"><path d="M 67.328125 66.230469 L 74.828125 66.230469 L 74.828125 75 L 67.328125 75 Z M 67.328125 66.230469 " clip-rule="nonzero"/></clipPath></defs><rect x="-7.5" width="90" fill="#ffffff" y="-7.5" height="89.999996" fill-opacity="1"/><rect x="-7.5" width="90" fill="#ffffff" y="-7.5" height="89.999996" fill-opacity="1"/><rect x="-7.5" width="90" fill="#000000" y="-7.5" height="89.999996" fill-opacity="1"/><g clip-path="url(#aa0df016da)"><path fill="#67c7ff" d="M 20.421875 31.609375 L 34.671875 31.609375 L 34.671875 45.859375 L 20.421875 45.859375 L 20.421875 31.609375 " fill-opacity="1" fill-rule="nonzero"/></g><g clip-path="url(#b6529d42d9)"><path fill="#67c7ff" d="M 49.1875 31.609375 L 64.1875 31.609375 L 64.1875 46.609375 L 49.1875 46.609375 L 49.1875 31.609375 " fill-opacity="1" fill-rule="nonzero"/></g><g clip-path="url(#87905973e7)"><path fill="#67c7ff" d="M 37.5 51.3125 L 47.25 51.3125 L 47.25 58.808594 L 37.5 58.808594 L 37.5 51.3125 " fill-opacity="1" fill-rule="nonzero"/></g><g clip-path="url(#d36550c06e)"><path fill="#67c7ff" d="M -1.613281 -2.589844 L 14.878906 -2.589844 L 14.878906 13.910156 L -1.613281 13.910156 L -1.613281 -2.589844 " fill-opacity="1" fill-rule="nonzero"/></g><g clip-path="url(#190b7bc4d2)"><path fill="#67c7ff" d="M 13.617188 -2.585938 L 22.617188 -2.585938 L 22.617188 7.90625 L 13.617188 7.90625 L 13.617188 -2.585938 " fill-opacity="1" fill-rule="nonzero"/></g><g clip-path="url(#381ec0f11e)"><path fill="#67c7ff" d="M 20.421875 -3.640625 L 33.167969 -3.640625 L 33.167969 10.609375 L 20.421875 10.609375 L 20.421875 -3.640625 " fill-opacity="1" fill-rule="nonzero"/></g><g clip-path="url(#9f4efffd1e)"><path fill="#67c7ff" d="M 30.164062 -2.589844 L 48.902344 -2.589844 L 48.902344 13.910156 L 30.164062 13.910156 L 30.164062 -2.589844 " fill-opacity="1" fill-rule="nonzero"/></g><g clip-path="url(#0633559bdc)"><path fill="#67c7ff" d="M -2.546875 10.59375 L 8.703125 10.59375 L 8.703125 21.84375 L -2.546875 21.84375 L -2.546875 10.59375 " fill-opacity="1" fill-rule="nonzero"/></g><g clip-path="url(#e8f0ebbe08)"><path fill="#67c7ff" d="M 47.039062 -2.585938 L 65.039062 -2.585938 L 65.039062 16.15625 L 47.039062 16.15625 L 47.039062 -2.585938 " fill-opacity="1" fill-rule="nonzero"/></g><g clip-path="url(#8ffe47a667)"><path fill="#67c7ff" d="M 62.03125 -2.589844 L 74.78125 -2.589844 L 74.78125 10.90625 L 62.03125 10.90625 L 62.03125 -2.589844 " fill-opacity="1" fill-rule="nonzero"/></g><g clip-path="url(#52ca6f59e0)"><path fill="#67c7ff" d="M -2.546875 19.171875 L 4.953125 19.171875 L 4.953125 26.671875 L -2.546875 26.671875 L -2.546875 19.171875 " fill-opacity="1" fill-rule="nonzero"/></g><g clip-path="url(#1aa91f7148)"><path fill="#67c7ff" d="M -19.757812 61.546875 L 14.738281 61.546875 L 14.738281 92.296875 L -19.757812 92.296875 L -19.757812 61.546875 " fill-opacity="1" fill-rule="nonzero"/></g><g clip-path="url(#390b3c790a)"><path fill="#67c7ff" d="M 67.328125 66.234375 L 74.828125 66.234375 L 74.828125 75.230469 L 67.328125 75.230469 L 67.328125 66.234375 " fill-opacity="1" fill-rule="nonzero"/></g></svg>